<svg width="38" height="38" viewBox="0 0 38 38" fill="none" xmlns="http://www.w3.org/2000/svg">
<path d="M34.8334 19H7.91671V10.1494C7.91115 9.57922 8.06164 9.01835 8.35188 8.52752C8.64212 8.03668 9.06106 7.63456 9.56337 7.36467C10.1188 7.06365 10.7518 6.93614 11.3805 6.9986C11.0605 7.96769 11.015 9.00645 11.2491 9.99979C11.4832 10.9931 11.9878 11.9023 12.7068 12.6265L14.3861 14.3057C14.5331 14.4527 14.7076 14.5694 14.8997 14.649C15.0918 14.7286 15.2977 14.7695 15.5056 14.7695C15.7135 14.7695 15.9194 14.7286 16.1115 14.649C16.3035 14.5694 16.4781 14.4527 16.625 14.3057L22.2224 8.70833C22.3694 8.56135 22.4861 8.38683 22.5657 8.19475C22.6453 8.00267 22.6862 7.79679 22.6862 7.58887C22.6862 7.38095 22.6453 7.17507 22.5657 6.98299C22.4861 6.79091 22.3694 6.61639 22.2224 6.4694L20.5432 4.7902C19.6086 3.85979 18.3723 3.29386 17.0573 3.19442C15.7423 3.09498 14.435 3.46858 13.3711 4.24786C12.4119 3.87323 11.3756 3.73862 10.3525 3.85573C9.32941 3.97285 8.3504 4.33814 7.50063 4.91985C6.65087 5.50156 5.95608 6.28206 5.47671 7.19348C4.99733 8.10489 4.74788 9.11962 4.75004 10.1494V19H3.16671C2.74678 19 2.34405 19.1668 2.04712 19.4637C1.75019 19.7607 1.58337 20.1634 1.58337 20.5833C1.58337 21.0033 1.75019 21.406 2.04712 21.7029C2.34405 21.9999 2.74678 22.1667 3.16671 22.1667H4.75004V26.9167C4.75306 27.8958 5.05907 28.8499 5.62605 29.6482C6.19304 30.4464 6.99321 31.0495 7.91671 31.3748V33.25C7.91671 33.6699 8.08352 34.0727 8.38046 34.3696C8.67739 34.6665 9.08012 34.8333 9.50004 34.8333C9.91997 34.8333 10.3227 34.6665 10.6196 34.3696C10.9166 34.0727 11.0834 33.6699 11.0834 33.25V31.6667H26.9167V33.25C26.9167 33.6699 27.0835 34.0727 27.3805 34.3696C27.6774 34.6665 28.0801 34.8333 28.5 34.8333C28.92 34.8333 29.3227 34.6665 29.6196 34.3696C29.9166 34.0727 30.0834 33.6699 30.0834 33.25V31.3749C31.0069 31.0496 31.8071 30.4464 32.374 29.6482C32.941 28.85 33.247 27.8958 33.25 26.9167V22.1667H34.8334C35.2533 22.1667 35.656 21.9999 35.953 21.7029C36.2499 21.406 36.4167 21.0033 36.4167 20.5833C36.4167 20.1634 36.2499 19.7607 35.953 19.4637C35.656 19.1668 35.2533 19 34.8334 19ZM14.9458 7.02913C15.3916 6.58455 15.9955 6.33489 16.625 6.33489C17.2546 6.33489 17.8585 6.58455 18.3042 7.02913L18.864 7.58887L15.5056 10.9473L14.9459 10.3875C14.5011 9.94191 14.2512 9.33799 14.2512 8.70834C14.2512 8.0787 14.501 7.47477 14.9458 7.02913V7.02913ZM30.0834 26.9167C30.0831 27.3365 29.9162 27.7391 29.6193 28.0359C29.3224 28.3328 28.9199 28.4997 28.5 28.5H9.50004C9.0802 28.4997 8.67764 28.3328 8.38077 28.0359C8.08389 27.7391 7.91699 27.3365 7.91671 26.9167V22.1667H30.0834V26.9167Z" fill="white"/>
</svg>
