<svg width="39" height="35" viewBox="0 0 39 35" fill="none" xmlns="http://www.w3.org/2000/svg">
<path d="M11.5834 19.7917C12.5228 19.7917 13.4412 19.5131 14.2223 18.9911C15.0035 18.4692 15.6123 17.7274 15.9718 16.8594C16.3313 15.9915 16.4254 15.0364 16.2421 14.115C16.0588 13.1936 15.6064 12.3472 14.9421 11.6829C14.2778 11.0186 13.4315 10.5662 12.5101 10.3829C11.5886 10.1997 10.6336 10.2937 9.76563 10.6532C8.89768 11.0128 8.15583 11.6216 7.63389 12.4027C7.11196 13.1838 6.83337 14.1022 6.83337 15.0417C6.83337 16.3014 7.33382 17.5096 8.22462 18.4004C9.11542 19.2912 10.3236 19.7917 11.5834 19.7917V19.7917ZM11.5834 13.4583C11.8965 13.4583 12.2026 13.5512 12.463 13.7252C12.7234 13.8992 12.9263 14.1464 13.0462 14.4358C13.166 14.7251 13.1974 15.0434 13.1363 15.3506C13.0752 15.6577 12.9244 15.9398 12.703 16.1613C12.4815 16.3827 12.1994 16.5335 11.8923 16.5946C11.5851 16.6557 11.2668 16.6243 10.9775 16.5045C10.6881 16.3846 10.4409 16.1817 10.2669 15.9213C10.0929 15.6609 10 15.3548 10 15.0417C10 14.6217 10.1669 14.219 10.4638 13.9221C10.7607 13.6251 11.1634 13.4583 11.5834 13.4583ZM32.1667 10.2917H19.5C19.0801 10.2917 18.6774 10.4585 18.3805 10.7554C18.0835 11.0523 17.9167 11.4551 17.9167 11.875V21.375H5.25004V8.70833C5.25004 8.28841 5.08323 7.88568 4.78629 7.58875C4.48936 7.29182 4.08663 7.125 3.66671 7.125C3.24678 7.125 2.84405 7.29182 2.54712 7.58875C2.25019 7.88568 2.08337 8.28841 2.08337 8.70833V29.2917C2.08337 29.7116 2.25019 30.1143 2.54712 30.4113C2.84405 30.7082 3.24678 30.875 3.66671 30.875C4.08663 30.875 4.48936 30.7082 4.78629 30.4113C5.08323 30.1143 5.25004 29.7116 5.25004 29.2917V24.5417H33.75V29.2917C33.75 29.7116 33.9169 30.1143 34.2138 30.4113C34.5107 30.7082 34.9135 30.875 35.3334 30.875C35.7533 30.875 36.156 30.7082 36.453 30.4113C36.7499 30.1143 36.9167 29.7116 36.9167 29.2917V15.0417C36.9167 13.7819 36.4163 12.5737 35.5255 11.6829C34.6347 10.7921 33.4265 10.2917 32.1667 10.2917ZM33.75 21.375H21.0834V13.4583H32.1667C32.5866 13.4583 32.9894 13.6251 33.2863 13.9221C33.5832 14.219 33.75 14.6217 33.75 15.0417V21.375Z" fill="white"/>
</svg>
