<svg width="50" height="50" viewBox="0 0 50 50" fill="none" xmlns="http://www.w3.org/2000/svg">
<path d="M31.25 22.9165H27.0833V14.5832C27.0833 14.0306 26.8638 13.5007 26.4731 13.11C26.0824 12.7193 25.5525 12.4998 25 12.4998C24.4475 12.4998 23.9176 12.7193 23.5269 13.11C23.1362 13.5007 22.9167 14.0306 22.9167 14.5832V24.9998C22.9167 25.5524 23.1362 26.0823 23.5269 26.473C23.9176 26.8637 24.4475 27.0832 25 27.0832H31.25C31.8025 27.0832 32.3324 26.8637 32.7231 26.473C33.1138 26.0823 33.3333 25.5524 33.3333 24.9998C33.3333 24.4473 33.1138 23.9174 32.7231 23.5267C32.3324 23.136 31.8025 22.9165 31.25 22.9165ZM25 4.1665C20.8796 4.1665 16.8516 5.38836 13.4256 7.67755C9.9996 9.96675 7.32933 13.2205 5.75251 17.0273C4.17568 20.8341 3.76311 25.0229 4.56697 29.0642C5.37083 33.1055 7.35501 36.8176 10.2686 39.7312C13.1822 42.6448 16.8943 44.629 20.9356 45.4329C24.9769 46.2367 29.1658 45.8242 32.9726 44.2473C36.7794 42.6705 40.0331 40.0002 42.3223 36.5742C44.6115 33.1482 45.8333 29.1203 45.8333 24.9998C45.8333 22.264 45.2945 19.5549 44.2475 17.0273C43.2005 14.4996 41.6659 12.203 39.7314 10.2684C37.7968 8.33389 35.5002 6.79932 32.9726 5.75235C30.445 4.70537 27.7359 4.1665 25 4.1665V4.1665ZM25 41.6665C21.7036 41.6665 18.4813 40.689 15.7405 38.8577C12.9997 37.0263 10.8635 34.4233 9.60201 31.3779C8.34055 28.3325 8.01049 24.9813 8.65358 21.7483C9.29667 18.5153 10.884 15.5456 13.2149 13.2147C15.5458 10.8838 18.5155 9.2965 21.7485 8.65342C24.9815 8.01033 28.3326 8.34038 31.3781 9.60185C34.4235 10.8633 37.0265 12.9995 38.8578 15.7403C40.6892 18.4812 41.6667 21.7035 41.6667 24.9998C41.6667 29.4201 39.9107 33.6593 36.7851 36.7849C33.6595 39.9106 29.4203 41.6665 25 41.6665V41.6665Z" fill="white"/>
</svg>
