<svg width="30" height="30" viewBox="0 0 30 30" fill="none" xmlns="http://www.w3.org/2000/svg">
<path d="M16.7625 15L24.6375 7.13749C24.8729 6.90211 25.0051 6.58286 25.0051 6.24999C25.0051 5.91711 24.8729 5.59787 24.6375 5.36249C24.4021 5.12711 24.0829 4.99487 23.75 4.99487C23.4171 4.99487 23.0979 5.12711 22.8625 5.36249L15 13.2375L7.13748 5.36249C6.90211 5.12711 6.58286 4.99487 6.24998 4.99487C5.91711 4.99487 5.59786 5.12711 5.36248 5.36249C5.12711 5.59787 4.99487 5.91711 4.99487 6.24999C4.99487 6.58286 5.12711 6.90211 5.36248 7.13749L13.2375 15L5.36248 22.8625C5.24532 22.9787 5.15233 23.1169 5.08887 23.2693C5.02541 23.4216 4.99274 23.585 4.99274 23.75C4.99274 23.915 5.02541 24.0784 5.08887 24.2307C5.15233 24.383 5.24532 24.5213 5.36248 24.6375C5.47869 24.7546 5.61694 24.8476 5.76926 24.9111C5.92159 24.9746 6.08497 25.0072 6.24998 25.0072C6.415 25.0072 6.57838 24.9746 6.73071 24.9111C6.88303 24.8476 7.02128 24.7546 7.13748 24.6375L15 16.7625L22.8625 24.6375C22.9787 24.7546 23.1169 24.8476 23.2693 24.9111C23.4216 24.9746 23.585 25.0072 23.75 25.0072C23.915 25.0072 24.0784 24.9746 24.2307 24.9111C24.383 24.8476 24.5213 24.7546 24.6375 24.6375C24.7546 24.5213 24.8476 24.383 24.9111 24.2307C24.9746 24.0784 25.0072 23.915 25.0072 23.75C25.0072 23.585 24.9746 23.4216 24.9111 23.2693C24.8476 23.1169 24.7546 22.9787 24.6375 22.8625L16.7625 15Z" fill="white"/>
</svg>
