<svg width="50" height="50" viewBox="0 0 50 50" fill="none" xmlns="http://www.w3.org/2000/svg">
<g clip-path="url(#clip0_332_1981)">
<path d="M35.4167 45.0625H10.4167C8.75906 45.0625 7.16935 44.404 5.99725 43.2319C4.82515 42.0598 4.16667 40.4701 4.16667 38.8125V22.1458C4.16667 21.5933 3.94717 21.0634 3.55647 20.6727C3.16577 20.282 2.63587 20.0625 2.08333 20.0625C1.5308 20.0625 1.00089 20.282 0.610194 20.6727C0.219493 21.0634 0 21.5933 0 22.1458L0 38.8125C0 41.5752 1.09747 44.2247 3.05097 46.1782C5.00447 48.1317 7.65399 49.2292 10.4167 49.2292H35.4167C35.9692 49.2292 36.4991 49.0097 36.8898 48.619C37.2805 48.2283 37.5 47.6984 37.5 47.1458C37.5 46.5933 37.2805 46.0634 36.8898 45.6727C36.4991 45.282 35.9692 45.0625 35.4167 45.0625ZM43.75 7.5625H14.5833C12.9257 7.5625 11.336 8.22098 10.1639 9.39308C8.99181 10.5652 8.33333 12.1549 8.33333 13.8125V34.6458C8.33333 36.3034 8.99181 37.8931 10.1639 39.0653C11.336 40.2374 12.9257 40.8958 14.5833 40.8958H43.75C45.4076 40.8958 46.9973 40.2374 48.1694 39.0653C49.3415 37.8931 50 36.3034 50 34.6458V13.8125C50 12.1549 49.3415 10.5652 48.1694 9.39308C46.9973 8.22098 45.4076 7.5625 43.75 7.5625V7.5625ZM42.8958 11.7292L30.6458 23.9792C30.4522 24.1744 30.2217 24.3294 29.9679 24.4352C29.714 24.541 29.4417 24.5954 29.1667 24.5954C28.8916 24.5954 28.6193 24.541 28.3655 24.4352C28.1116 24.3294 27.8812 24.1744 27.6875 23.9792L15.4375 11.7292H42.8958ZM45.8333 34.6458C45.8333 35.1984 45.6138 35.7283 45.2231 36.119C44.8324 36.5097 44.3025 36.7292 43.75 36.7292H14.5833C14.0308 36.7292 13.5009 36.5097 13.1102 36.119C12.7195 35.7283 12.5 35.1984 12.5 34.6458V14.5833L24.75 26.8333C25.9219 28.0038 27.5104 28.6612 29.1667 28.6612C30.8229 28.6612 32.4115 28.0038 33.5833 26.8333L45.8333 14.5833V34.6458Z" fill="white"/>
</g>
<defs>
<clipPath id="clip0_332_1981">
<rect width="50" height="50" fill="white"/>
</clipPath>
</defs>
</svg>
