<svg width="60" height="60" viewBox="0 0 60 60" fill="none" xmlns="http://www.w3.org/2000/svg">
<path d="M52.25 5H7.75C7.02065 5 6.32118 5.28973 5.80546 5.80546C5.28973 6.32118 5 7.02065 5 7.75V52.25C5 52.6111 5.07113 52.9687 5.20933 53.3024C5.34753 53.636 5.5501 53.9392 5.80546 54.1945C6.06082 54.4499 6.36398 54.6525 6.69762 54.7907C7.03127 54.9289 7.38886 55 7.75 55H31.7V35.625H25.2V28.125H31.7V22.5C31.5654 21.1794 31.7213 19.8453 32.1568 18.5913C32.5923 17.3374 33.2969 16.1939 34.2212 15.241C35.1454 14.2882 36.2669 13.5491 37.5071 13.0756C38.7472 12.6021 40.0759 12.4056 41.4 12.5C43.3458 12.488 45.2907 12.5882 47.225 12.8V19.55H43.25C40.1 19.55 39.5 21.05 39.5 23.225V28.05H47L46.025 35.55H39.5V55H52.25C52.6111 55 52.9687 54.9289 53.3024 54.7907C53.636 54.6525 53.9392 54.4499 54.1945 54.1945C54.4499 53.9392 54.6525 53.636 54.7907 53.3024C54.9289 52.9687 55 52.6111 55 52.25V7.75C55 7.38886 54.9289 7.03127 54.7907 6.69762C54.6525 6.36398 54.4499 6.06082 54.1945 5.80546C53.9392 5.5501 53.636 5.34753 53.3024 5.20933C52.9687 5.07113 52.6111 5 52.25 5Z" fill="white"/>
</svg>
