<svg width="60" height="60" viewBox="0 0 60 60" fill="none" xmlns="http://www.w3.org/2000/svg">
<path d="M43.35 13.65C42.7567 13.65 42.1766 13.8259 41.6833 14.1556C41.1899 14.4852 40.8054 14.9538 40.5784 15.5019C40.3513 16.0501 40.2919 16.6533 40.4076 17.2353C40.5234 17.8172 40.8091 18.3518 41.2287 18.7713C41.6482 19.1909 42.1828 19.4766 42.7647 19.5924C43.3467 19.7081 43.9499 19.6487 44.4981 19.4216C45.0462 19.1946 45.5148 18.8101 45.8444 18.3167C46.1741 17.8234 46.35 17.2433 46.35 16.65C46.35 15.8544 46.0339 15.0913 45.4713 14.5287C44.9087 13.9661 44.1456 13.65 43.35 13.65V13.65ZM54.85 19.7C54.8014 17.6257 54.4129 15.5735 53.7 13.625C53.0643 11.9578 52.075 10.4482 50.8 9.2C49.5621 7.91856 48.0489 6.93544 46.375 6.325C44.4316 5.5904 42.3771 5.19302 40.3 5.15C37.65 5 36.8 5 30 5C23.2 5 22.35 5 19.7 5.15C17.6229 5.19302 15.5684 5.5904 13.625 6.325C11.9542 6.94162 10.4423 7.9239 9.2 9.2C7.91856 10.4379 6.93544 11.9511 6.325 13.625C5.5904 15.5684 5.19302 17.6229 5.15 19.7C5 22.35 5 23.2 5 30C5 36.8 5 37.65 5.15 40.3C5.19302 42.3771 5.5904 44.4316 6.325 46.375C6.93544 48.0489 7.91856 49.5621 9.2 50.8C10.4423 52.0761 11.9542 53.0584 13.625 53.675C15.5684 54.4096 17.6229 54.807 19.7 54.85C22.35 55 23.2 55 30 55C36.8 55 37.65 55 40.3 54.85C42.3771 54.807 44.4316 54.4096 46.375 53.675C48.0489 53.0646 49.5621 52.0814 50.8 50.8C52.0806 49.5565 53.0708 48.0455 53.7 46.375C54.4129 44.4265 54.8014 42.3743 54.85 40.3C54.85 37.65 55 36.8 55 30C55 23.2 55 22.35 54.85 19.7V19.7ZM50.35 40C50.3318 41.5869 50.0444 43.1593 49.5 44.65C49.1008 45.738 48.4597 46.7211 47.625 47.525C46.8141 48.3513 45.8331 48.9911 44.75 49.4C43.2593 49.9444 41.6869 50.2318 40.1 50.25C37.6 50.375 36.675 50.4 30.1 50.4C23.525 50.4 22.6 50.4 20.1 50.25C18.4522 50.2809 16.8115 50.0271 15.25 49.5C14.2145 49.0702 13.2784 48.432 12.5 47.625C11.6702 46.8219 11.0371 45.838 10.65 44.75C10.0396 43.2379 9.70111 41.6299 9.65 40C9.65 37.5 9.5 36.575 9.5 30C9.5 23.425 9.5 22.5 9.65 20C9.66121 18.3776 9.95738 16.7699 10.525 15.25C10.9651 14.1948 11.6407 13.2541 12.5 12.5C13.2595 11.6404 14.1982 10.9577 15.25 10.5C16.7739 9.95011 18.38 9.6627 20 9.65C22.5 9.65 23.425 9.5 30 9.5C36.575 9.5 37.5 9.5 40 9.65C41.5869 9.6682 43.1593 9.95562 44.65 10.5C45.7861 10.9216 46.8057 11.6071 47.625 12.5C48.4443 13.2679 49.0844 14.2068 49.5 15.25C50.0556 16.7723 50.3432 18.3794 50.35 20C50.475 22.5 50.5 23.425 50.5 30C50.5 36.575 50.475 37.5 50.35 40ZM30 17.175C27.4645 17.1799 24.9874 17.9363 22.8816 19.3485C20.7759 20.7608 19.1359 22.7655 18.1691 25.1094C17.2022 27.4533 16.9518 30.0312 17.4495 32.5173C17.9472 35.0035 19.1706 37.2863 20.9652 39.0774C22.7598 40.8686 25.045 42.0875 27.5321 42.5804C30.0193 43.0732 32.5967 42.8178 34.9387 41.8463C37.2807 40.8749 39.2822 39.2311 40.6903 37.1226C42.0984 35.0141 42.85 32.5355 42.85 30C42.8533 28.3128 42.523 26.6415 41.8781 25.0824C41.2332 23.5233 40.2864 22.107 39.0922 20.9151C37.898 19.7232 36.4799 18.7792 34.9195 18.1373C33.3591 17.4955 31.6872 17.1684 30 17.175V17.175ZM30 38.325C28.3535 38.325 26.7439 37.8367 25.3749 36.922C24.0058 36.0072 22.9388 34.707 22.3087 33.1858C21.6786 31.6646 21.5137 29.9908 21.835 28.3759C22.1562 26.761 22.9491 25.2776 24.1133 24.1133C25.2776 22.9491 26.761 22.1562 28.3759 21.835C29.9908 21.5137 31.6646 21.6786 33.1858 22.3087C34.707 22.9388 36.0072 24.0058 36.922 25.3749C37.8367 26.7439 38.325 28.3535 38.325 30C38.325 31.0933 38.1097 32.1758 37.6913 33.1858C37.2729 34.1959 36.6597 35.1136 35.8867 35.8867C35.1136 36.6597 34.1959 37.2729 33.1858 37.6913C32.1758 38.1097 31.0933 38.325 30 38.325V38.325Z" fill="white"/>
</svg>
