<svg width="60" height="60" viewBox="0 0 60 60" fill="none" xmlns="http://www.w3.org/2000/svg">
<path d="M51.175 4.99986H8.82499C8.34894 4.99325 7.87625 5.08048 7.43391 5.25657C6.99157 5.43266 6.58825 5.69416 6.24699 6.02614C5.90572 6.35812 5.6332 6.75407 5.44497 7.19139C5.25675 7.6287 5.15651 8.09881 5.14999 8.57486V51.4249C5.15651 51.9009 5.25675 52.371 5.44497 52.8083C5.6332 53.2456 5.90572 53.6416 6.24699 53.9736C6.58825 54.3056 6.99157 54.5671 7.43391 54.7431C7.87625 54.9192 8.34894 55.0065 8.82499 54.9999H51.175C51.651 55.0065 52.1237 54.9192 52.5661 54.7431C53.0084 54.5671 53.4117 54.3056 53.753 53.9736C54.0943 53.6416 54.3668 53.2456 54.555 52.8083C54.7432 52.371 54.8435 51.9009 54.85 51.4249V8.57486C54.8435 8.09881 54.7432 7.6287 54.555 7.19139C54.3668 6.75407 54.0943 6.35812 53.753 6.02614C53.4117 5.69416 53.0084 5.43266 52.5661 5.25657C52.1237 5.08048 51.651 4.99325 51.175 4.99986ZM20.225 46.8499H12.725V24.3499H20.225V46.8499ZM16.475 21.1999C15.4406 21.1999 14.4487 20.789 13.7173 20.0576C12.9859 19.3262 12.575 18.3342 12.575 17.2999C12.575 16.2655 12.9859 15.2735 13.7173 14.5421C14.4487 13.8108 15.4406 13.3999 16.475 13.3999C17.0242 13.3376 17.5804 13.392 18.1072 13.5596C18.6339 13.7271 19.1193 14.0041 19.5316 14.3723C19.9439 14.7404 20.2738 15.1916 20.4997 15.6961C20.7255 16.2006 20.8423 16.7471 20.8423 17.2999C20.8423 17.8526 20.7255 18.3991 20.4997 18.9037C20.2738 19.4082 19.9439 19.8593 19.5316 20.2275C19.1193 20.5956 18.6339 20.8726 18.1072 21.0402C17.5804 21.2077 17.0242 21.2621 16.475 21.1999ZM47.275 46.8499H39.775V34.7749C39.775 31.7499 38.7 29.7749 35.975 29.7749C35.1317 29.781 34.3105 30.0456 33.6221 30.5328C32.9337 31.02 32.4112 31.7065 32.125 32.4999C31.9294 33.0875 31.8446 33.7063 31.875 34.3249V46.8249H24.375C24.375 46.8249 24.375 26.3749 24.375 24.3249H31.875V27.4999C32.5563 26.3176 33.5473 25.3437 34.7411 24.6829C35.9349 24.0221 37.2864 23.6995 38.65 23.7499C43.65 23.7499 47.275 26.9749 47.275 33.8999V46.8499Z" fill="white"/>
</svg>
