<svg width="50" height="50" viewBox="0 0 50 50" fill="none" xmlns="http://www.w3.org/2000/svg">
<path d="M44.4167 10.521L31.9167 6.3543H31.7708C31.6739 6.34455 31.5761 6.34455 31.4792 6.3543H31H30.7292H30.5833L18.75 10.4168L6.91666 6.3543C6.60336 6.25099 6.27 6.22356 5.94403 6.27427C5.61805 6.32498 5.30878 6.45237 5.04166 6.64597C4.77241 6.83767 4.55263 7.09068 4.40049 7.38411C4.24834 7.67753 4.16819 8.00295 4.16666 8.33347V37.5001C4.16554 37.9369 4.3017 38.363 4.55592 38.7181C4.81013 39.0733 5.16954 39.3395 5.58333 39.4793L18.0833 43.646C18.503 43.7828 18.9553 43.7828 19.375 43.646V43.646L31.25 39.6876L43.0833 43.7501C43.3045 43.7801 43.5288 43.7801 43.75 43.7501C44.1856 43.7563 44.6108 43.617 44.9583 43.3543C45.2276 43.1626 45.4474 42.9096 45.5995 42.6162C45.7517 42.3227 45.8318 41.9973 45.8333 41.6668V12.5001C45.8345 12.0634 45.6983 11.6373 45.4441 11.2822C45.1899 10.927 44.8305 10.6607 44.4167 10.521V10.521ZM16.6667 38.771L8.33333 36.0001V11.2293L16.6667 14.0001V38.771ZM29.1667 36.0001L20.8333 38.771V14.0001L29.1667 11.2293V36.0001ZM41.6667 38.771L33.3333 36.0001V11.2293L41.6667 14.0001V38.771Z" fill="white"/>
</svg>
