<svg width="50" height="50" viewBox="0 0 50 50" fill="none" xmlns="http://www.w3.org/2000/svg">
<path d="M40.4375 27.0832C39.9792 27.0832 39.5 26.9373 39.0417 26.8332C38.1142 26.6258 37.2023 26.3543 36.3125 26.0207C35.346 25.6691 34.2836 25.6873 33.3298 26.0719C32.376 26.4565 31.5981 27.1803 31.1458 28.104L30.6875 29.0623C28.6642 27.9148 26.795 26.5147 25.125 24.8957C23.5059 23.2256 22.1058 21.3565 20.9583 19.3332L21.9167 18.8957C22.8403 18.4434 23.5641 17.6655 23.9487 16.7117C24.3333 15.7579 24.3516 14.6955 24 13.729C23.6691 12.8312 23.3977 11.9125 23.1875 10.979C23.0833 10.5207 23 10.0415 22.9375 9.58317C22.6845 8.11571 21.9159 6.7868 20.77 5.83575C19.6242 4.88471 18.1764 4.37402 16.6875 4.39567H10.4167C9.53592 4.39452 8.66489 4.57952 7.86065 4.93855C7.05642 5.29759 6.33715 5.82254 5.74999 6.479C5.15066 7.15328 4.7044 7.94932 4.44187 8.81241C4.17935 9.67551 4.10678 10.5852 4.22916 11.479C5.36163 20.1501 9.32335 28.2054 15.5 34.3957C21.6903 40.5723 29.7455 44.534 38.4167 45.6665C38.6871 45.6872 38.9587 45.6872 39.2292 45.6665C40.7654 45.6688 42.2487 45.1051 43.3958 44.0832C44.0523 43.496 44.5772 42.7767 44.9363 41.9725C45.2953 41.1683 45.4803 40.2972 45.4792 39.4165V33.1665C45.4679 31.727 44.9601 30.3355 44.0415 29.2271C43.1229 28.1187 41.8499 27.3614 40.4375 27.0832ZM41.4583 39.5832C41.4576 39.8739 41.3961 40.1612 41.2777 40.4268C41.1593 40.6923 40.9866 40.9301 40.7708 41.1248C40.5425 41.3329 40.2708 41.4875 39.9753 41.5776C39.6798 41.6677 39.368 41.6909 39.0625 41.6457C31.2881 40.6303 24.063 37.0873 18.5 31.5623C12.9322 25.9946 9.35839 18.7444 8.33333 10.9373C8.28807 10.6318 8.31132 10.32 8.4014 10.0245C8.49148 9.72907 8.64613 9.45733 8.85416 9.229C9.05129 9.01057 9.29245 8.83637 9.56176 8.71787C9.83108 8.59937 10.1224 8.53926 10.4167 8.5415H16.6667C17.1482 8.52973 17.619 8.68522 17.9989 8.9815C18.3787 9.27778 18.6442 9.69654 18.75 10.1665C18.75 10.729 18.9375 11.3123 19.0625 11.8748C19.3033 12.9662 19.6236 14.0385 20.0208 15.0832L17.1042 16.4582C16.6028 16.6883 16.2132 17.1079 16.0208 17.6248C15.8125 18.132 15.8125 18.701 16.0208 19.2082C19.0192 25.6306 24.1818 30.7932 30.6042 33.7915C31.1114 33.9999 31.6803 33.9999 32.1875 33.7915C32.7045 33.5991 33.124 33.2095 33.3542 32.7082L34.6667 29.7915C35.7415 30.1834 36.8411 30.5036 37.9583 30.7498C38.5 30.8748 39.0833 30.979 39.6458 31.0623C40.1158 31.1682 40.5345 31.4336 40.8308 31.8135C41.1271 32.1933 41.2826 32.6641 41.2708 33.1457L41.4583 39.5832ZM29.1667 4.1665C28.6875 4.1665 28.1875 4.1665 27.7083 4.1665C27.1558 4.21347 26.6445 4.478 26.2871 4.90191C25.9296 5.32583 25.7551 5.87439 25.8021 6.42692C25.849 6.97945 26.1136 7.4907 26.5375 7.84819C26.9614 8.20568 27.51 8.38014 28.0625 8.33317H29.1667C32.4819 8.33317 35.6613 9.65013 38.0055 11.9943C40.3497 14.3385 41.6667 17.518 41.6667 20.8332C41.6667 21.2082 41.6667 21.5623 41.6667 21.9373C41.6205 22.4869 41.7941 23.0324 42.1495 23.4542C42.5049 23.876 43.013 24.1396 43.5625 24.1873H43.7292C44.2507 24.1895 44.7541 23.9959 45.1398 23.6449C45.5255 23.2938 45.7656 22.8109 45.8125 22.2915C45.8125 21.8123 45.8125 21.3123 45.8125 20.8332C45.8125 16.4165 44.0594 12.1804 40.9383 9.05542C37.8172 5.93041 33.5833 4.17202 29.1667 4.1665ZM33.3333 20.8332C33.3333 21.3857 33.5528 21.9156 33.9435 22.3063C34.3342 22.697 34.8641 22.9165 35.4167 22.9165C35.9692 22.9165 36.4991 22.697 36.8898 22.3063C37.2805 21.9156 37.5 21.3857 37.5 20.8332C37.5 18.623 36.622 16.5034 35.0592 14.9406C33.4964 13.3778 31.3768 12.4998 29.1667 12.4998C28.6141 12.4998 28.0842 12.7193 27.6935 13.11C27.3028 13.5007 27.0833 14.0306 27.0833 14.5832C27.0833 15.1357 27.3028 15.6656 27.6935 16.0563C28.0842 16.447 28.6141 16.6665 29.1667 16.6665C30.2717 16.6665 31.3315 17.1055 32.1129 17.8869C32.8943 18.6683 33.3333 19.7281 33.3333 20.8332Z" fill="white"/>
</svg>
