<svg width="378" height="71" viewBox="0 0 378 71" fill="none" xmlns="http://www.w3.org/2000/svg">
<path d="M8.30061 23.1748C12.1365 23.1748 14.4003 25.753 14.4003 28.5199C14.4003 30.5951 13.3313 32.1042 11.1932 33.0475C13.1426 33.9907 13.7086 36.3174 16.3497 41.7883H11.1932C9.18098 37.8266 8.42638 34.2423 5.91104 34.2423H4.59049V41.7883H0V23.1748H8.30061ZM4.59049 30.9095H7.04294C8.30061 30.9095 9.62116 30.3435 9.62116 28.7714C9.62116 27.388 8.74079 26.6334 6.98006 26.6334H4.59049V30.9095Z" fill="white"/>
<path d="M27.7945 42.1027C21.0031 42.1027 17.1672 37.2607 17.1672 32.5444C17.1672 28.0797 20.8144 22.9861 27.7945 22.9861C34.7745 22.9861 38.4218 28.0797 38.4218 32.5444C38.4847 37.3236 34.4601 42.1027 27.7945 42.1027ZM27.7945 26.822C24.273 26.822 21.8834 29.0858 21.8834 32.5444C21.8834 35.9401 24.273 38.2668 27.7945 38.2668C31.3159 38.2668 33.7055 36.003 33.7055 32.5444C33.7055 29.0858 31.3159 26.822 27.7945 26.822Z" fill="white"/>
<path d="M44.773 33.1104L37.4156 23.1748H43.0752L47.0997 29.023L51.1871 23.1748H56.7209L49.4264 33.1104V41.8512H44.773V33.1104Z" fill="white"/>
<path d="M74.6426 41.8512H69.612L68.1028 38.2039H59.7393L58.3558 41.8512H53.388L60.8712 23.2377H66.2791L74.6426 41.8512ZM63.7638 27.7024L60.9969 34.934H66.7193L63.7638 27.7024Z" fill="white"/>
<path d="M91.5583 41.8512H77.4095V23.1748H82V38.3926H91.5583V41.8512Z" fill="white"/>
<path d="M114.008 41.8512H99.8589V23.1748H104.449V38.3926H114.008V41.8512Z" fill="white"/>
<path d="M127.968 41.8512H117.026V27.0107H127.842V29.7776H120.736V32.8589H127.465V35.5628H120.736V39.0843H127.968V41.8512Z" fill="white"/>
<path d="M139.727 23.1748C143.94 23.1748 145.89 26.1303 145.89 28.7085C145.89 31.3496 144.003 34.3681 139.727 34.3681H136.08V41.8512H131.489V23.2377H139.79V23.1748H139.727ZM136.017 30.9723H138.218C140.356 30.9723 141.11 30.2177 141.11 28.7714C141.11 27.1365 140.23 26.5705 137.715 26.5705H136.017V30.9723Z" fill="white"/>
<path d="M165.509 41.8512H160.479L158.969 38.2039H150.606L149.222 41.8512H144.255L151.738 23.2377H157.146L165.509 41.8512ZM154.568 27.7024L151.801 34.934H157.523L154.568 27.7024Z" fill="white"/>
<path d="M183.997 28.5827C181.607 27.4508 179.344 26.822 177.017 26.822C171.923 26.822 170.225 29.9662 170.225 32.7331C170.225 36.0659 172.804 38.2668 176.64 38.2668C177.771 38.2668 178.4 38.141 179.721 37.638V35.4371H177.017V32.0413H184.374V39.6502C182.991 41.0965 179.532 42.1656 176.577 42.1656C170.1 42.1656 165.446 38.2039 165.446 32.6073C165.446 26.8849 170.037 23.049 176.702 23.049C179.469 23.049 182.236 23.6778 184.06 24.5582V28.5199H183.997V28.5827Z" fill="white"/>
<path d="M201.541 41.8512H187.833V23.1748H201.541V26.5705H192.423V30.4693H200.975V33.9907H192.423V38.3926H201.541V41.8512Z" fill="white"/>
<path d="M98.727 0.725403H0V15.503H98.727V0.725403Z" fill="#FB000B"/>
<path d="M201.541 0.725403H199.655V15.503H201.541V0.725403Z" fill="white"/>
<path d="M105.518 0.725403H103.632V15.503H105.518V0.725403Z" fill="white"/>
<path d="M110.109 0.725403H108.222V15.503H110.109V0.725403Z" fill="white"/>
<path d="M114.637 0.725403H112.75V15.503H114.637V0.725403Z" fill="white"/>
<path d="M119.29 0.725403H117.403V15.503H119.29V0.725403Z" fill="white"/>
<path d="M123.817 0.725403H121.931V15.503H123.817V0.725403Z" fill="white"/>
<path d="M128.345 0.725403H126.459V15.503H128.345V0.725403Z" fill="white"/>
<path d="M132.999 0.725403H131.112V15.503H132.999V0.725403Z" fill="white"/>
<path d="M137.526 0.725403H135.64V15.503H137.526V0.725403Z" fill="white"/>
<path d="M142.117 0.725403H140.23V15.503H142.117V0.725403Z" fill="white"/>
<path d="M146.644 0.725403H144.758V15.503H146.644V0.725403Z" fill="white"/>
<path d="M151.298 0.725403H149.411V15.503H151.298V0.725403Z" fill="white"/>
<path d="M155.825 0.725403H153.939V15.503H155.825V0.725403Z" fill="white"/>
<path d="M160.416 0.725403H158.529V15.503H160.416V0.725403Z" fill="white"/>
<path d="M165.006 0.725403H163.12V15.503H165.006V0.725403Z" fill="white"/>
<path d="M169.534 0.725403H167.647V15.503H169.534V0.725403Z" fill="white"/>
<path d="M174.124 0.725403H172.238V15.503H174.124V0.725403Z" fill="white"/>
<path d="M178.715 0.725403H176.828V15.503H178.715V0.725403Z" fill="white"/>
<path d="M183.305 0.725403H181.419V15.503H183.305V0.725403Z" fill="white"/>
<path d="M187.833 0.725403H185.946V15.503H187.833V0.725403Z" fill="white"/>
<path d="M192.423 0.725403H190.537V15.503H192.423V0.725403Z" fill="white"/>
<path d="M197.014 0.725403H195.127V15.503H197.014V0.725403Z" fill="white"/>
<path d="M98.727 49.4601H0V64.2377H98.727V49.4601Z" fill="#FB000B"/>
<path d="M201.541 49.4601H199.655V64.2377H201.541V49.4601Z" fill="white"/>
<path d="M105.518 49.4601H103.632V64.2377H105.518V49.4601Z" fill="white"/>
<path d="M110.109 49.4601H108.222V64.2377H110.109V49.4601Z" fill="white"/>
<path d="M114.637 49.4601H112.75V64.2377H114.637V49.4601Z" fill="white"/>
<path d="M119.29 49.4601H117.403V64.2377H119.29V49.4601Z" fill="white"/>
<path d="M123.817 49.4601H121.931V64.2377H123.817V49.4601Z" fill="white"/>
<path d="M128.345 49.4601H126.459V64.2377H128.345V49.4601Z" fill="white"/>
<path d="M132.999 49.4601H131.112V64.2377H132.999V49.4601Z" fill="white"/>
<path d="M137.526 49.4601H135.64V64.2377H137.526V49.4601Z" fill="white"/>
<path d="M142.117 49.4601H140.23V64.2377H142.117V49.4601Z" fill="white"/>
<path d="M146.644 49.4601H144.758V64.2377H146.644V49.4601Z" fill="white"/>
<path d="M151.298 49.4601H149.411V64.2377H151.298V49.4601Z" fill="white"/>
<path d="M155.825 49.4601H153.939V64.2377H155.825V49.4601Z" fill="white"/>
<path d="M160.416 49.4601H158.529V64.2377H160.416V49.4601Z" fill="white"/>
<path d="M165.006 49.4601H163.12V64.2377H165.006V49.4601Z" fill="white"/>
<path d="M169.534 49.4601H167.647V64.2377H169.534V49.4601Z" fill="white"/>
<path d="M174.124 49.4601H172.238V64.2377H174.124V49.4601Z" fill="white"/>
<path d="M178.715 49.4601H176.828V64.2377H178.715V49.4601Z" fill="white"/>
<path d="M183.305 49.4601H181.419V64.2377H183.305V49.4601Z" fill="white"/>
<path d="M187.833 49.4601H185.946V64.2377H187.833V49.4601Z" fill="white"/>
<path d="M192.423 49.4601H190.537V64.2377H192.423V49.4601Z" fill="white"/>
<path d="M197.014 49.4601H195.127V64.2377H197.014V49.4601Z" fill="white"/>
<path d="M319.762 63.9232C319.762 63.8603 319.699 63.7974 319.636 63.7346L318.945 63.3573C319.008 63.0428 319.322 62.1625 319.511 61.5336C319.511 61.4708 319.511 61.345 319.448 61.2821C319.385 61.2192 319.322 61.1563 319.196 61.2192C318.63 61.345 317.813 61.4708 317.498 61.5336L316.995 60.6533C316.932 60.5904 316.87 60.5275 316.807 60.5275C316.744 60.5275 316.618 60.5275 316.618 60.5904L315.298 62.0996C315.423 61.5965 315.801 59.8987 316.052 58.7039C316.052 58.5781 316.052 58.5152 315.989 58.4523C315.926 58.3895 315.801 58.3895 315.738 58.4523C315.36 58.641 314.794 58.9554 314.543 59.0812L313.348 56.9431C313.285 56.8803 313.222 56.8174 313.16 56.8174C313.097 56.8174 312.971 56.8803 312.971 56.9431L311.776 59.0812C311.525 58.9554 310.959 58.641 310.581 58.4523C310.518 58.3895 310.393 58.3895 310.33 58.4523C310.267 58.5152 310.204 58.5781 310.267 58.7039L311.021 62.0996L309.701 60.5904C309.638 60.5275 309.575 60.5275 309.512 60.5275C309.449 60.5275 309.386 60.5904 309.324 60.6533L308.821 61.5336C308.569 61.4708 307.752 61.345 307.123 61.2192C307.06 61.2192 306.934 61.2192 306.871 61.2821C306.808 61.345 306.808 61.4079 306.808 61.5336C306.997 62.1625 307.248 63.0428 307.374 63.3573L306.683 63.7346C306.62 63.7974 306.557 63.8603 306.557 63.9232C306.557 63.9861 306.557 64.1118 306.62 64.1118L309.827 66.6901C309.764 66.8787 309.638 67.5076 309.512 67.9477C309.512 68.0106 309.512 68.1364 309.575 68.1993C309.638 68.2622 309.701 68.2622 309.827 68.2622L312.971 67.6333V70.2115C312.971 70.3373 313.097 70.4631 313.222 70.4631C313.348 70.4631 313.474 70.3373 313.474 70.2115V67.6333L316.618 68.2622H316.681C316.744 68.2622 316.807 68.2622 316.87 68.1993C316.932 68.1364 316.933 68.0735 316.933 67.9477C316.807 67.5704 316.681 66.9416 316.618 66.6901L319.825 64.1118C319.762 64.049 319.825 63.9861 319.762 63.9232Z" fill="#FB000B"/>
<path d="M300.08 63.7346H250.087V64.3006H300.08V63.7346Z" fill="white"/>
<path d="M376.169 63.7346H326.176V64.3006H376.169V63.7346Z" fill="white"/>
<path d="M267.003 32.9846C265.117 34.368 262.727 35.1226 259.96 35.1226C253.672 35.1226 248.767 30.2806 248.767 23.9922C248.767 17.7039 253.672 12.8619 259.96 12.8619C262.475 12.8619 264.613 13.4278 266.437 14.3711V15.4401C264.676 14.1195 262.413 13.2392 259.96 13.2392C254.804 13.2392 250.905 17.8925 250.905 23.8665C250.905 29.9033 254.804 34.4938 259.96 34.4938C262.79 34.4938 265.305 33.299 267.003 31.6011V32.9846Z" fill="white"/>
<path d="M277.19 12.6732L285.868 34.6824H283.856L281.215 28.0168H271.656L269.015 34.6824H268.512L277.19 12.6732ZM281.026 27.5137L276.436 15.8174L271.845 27.5137H281.026Z" fill="white"/>
<path d="M287.755 12.8619L303.601 31.6011V13.2392H304.041V35.0597L288.195 16.3205V34.6824H287.755V12.8619Z" fill="white"/>
<path d="M314.669 12.6732L323.284 34.6824H321.271L318.63 28.0168H309.135L306.494 34.6824H305.991L314.669 12.6732ZM318.505 27.5137L313.914 15.8174L309.324 27.5137H318.505Z" fill="white"/>
<path d="M325.233 13.2392H330.767C337.118 13.2392 342.337 17.641 342.337 23.9294C342.337 30.2177 337.118 34.6196 330.767 34.6196H325.233V13.2392ZM330.704 34.2423C335.923 34.2423 340.262 30.0291 340.262 23.9923C340.262 17.9555 335.923 13.7423 330.704 13.7423H327.12V34.2423H330.704Z" fill="white"/>
<path d="M350.952 12.6732L359.567 34.6824H357.555L354.914 28.0168H345.356L342.715 34.6824H342.212L350.952 12.6732ZM354.788 27.5137L350.198 15.7545L345.607 27.4508H354.851V27.5137H354.788Z" fill="white"/>
<path d="M362.02 13.1134C361.328 15.7545 359.253 19.276 358.373 20.7223H357.933C358.624 18.8358 359.379 15.3143 359.756 13.1134H362.02Z" fill="white"/>
<path d="M364.409 31.9155C364.409 31.9155 366.799 34.4938 370.32 34.4938C373.213 34.4938 375.666 32.733 375.666 30.2806C375.666 27.8281 373.465 26.256 370.698 24.3695C367.994 22.483 364.85 20.9109 364.85 17.7668C364.85 14.4968 367.994 12.9247 370.949 12.9247C373.276 12.9247 375.037 13.8051 375.037 13.8051V14.7484C375.037 14.7484 373.276 13.3649 370.949 13.3649C368.686 13.3649 366.233 14.6226 366.233 17.0122C366.233 19.1502 368.371 20.4079 371.075 22.0428C374.408 24.0551 377.301 25.9416 377.301 29.2744C377.301 33.3619 373.402 34.9339 370.32 34.9339C366.736 34.9339 364.472 32.9846 364.472 32.9846V31.9155H364.409Z" fill="white"/>
<path d="M250.276 41.8512H253.86C254.238 41.8512 254.552 41.914 254.929 41.9769C255.244 42.0398 255.558 42.1656 255.81 42.3542C256.061 42.5429 256.25 42.7315 256.376 43.0459C256.502 43.2975 256.564 43.6748 256.564 44.0521C256.564 44.618 256.376 45.1211 256.061 45.4984C255.747 45.8757 255.307 46.1272 254.741 46.253C255.118 46.3159 255.432 46.3788 255.684 46.5674C255.936 46.7561 256.061 46.9447 256.187 47.1334C256.313 47.3849 256.376 47.6364 256.376 47.888C256.439 48.1395 256.439 48.4539 256.439 48.7054V49.2085C256.439 49.3972 256.439 49.5229 256.439 49.6487C256.439 49.7745 256.502 49.9002 256.502 50.026C256.564 50.1518 256.564 50.2147 256.627 50.3404H256.061C255.936 50.1518 255.873 49.9002 255.873 49.6487C255.873 49.3972 255.873 49.0828 255.873 48.8312C255.873 48.5168 255.873 48.2653 255.81 48.0137C255.81 47.7622 255.684 47.5107 255.558 47.2591C255.433 47.0076 255.244 46.8818 254.929 46.6932C254.678 46.5674 254.301 46.5045 253.798 46.5045H250.779V50.4033H250.276V41.7254V41.8512ZM253.923 46.0644C254.238 46.0644 254.489 46.0015 254.804 45.9386C255.055 45.8757 255.307 45.7499 255.495 45.5613C255.684 45.3726 255.81 45.184 255.936 44.9324C256.061 44.6809 256.124 44.3665 256.124 44.0521C256.124 43.7377 256.061 43.4861 255.936 43.2346C255.81 42.9831 255.684 42.8573 255.432 42.6687C255.244 42.5429 254.992 42.4171 254.741 42.3542C254.489 42.2914 254.238 42.2285 253.923 42.2285H250.842V46.0015H253.923V46.0644Z" fill="white"/>
<path d="M257.822 41.8511H263.67V42.2913H258.388V45.687H263.356V46.1901H258.388V50.026H263.733V50.4662H257.822V41.8511Z" fill="white"/>
<path d="M267.443 41.8511H268.009L271.405 50.4662H270.839L269.77 47.6993H265.682L264.613 50.4662H263.985L267.443 41.8511ZM269.581 47.2591L267.695 42.3542L265.745 47.2591H269.581Z" fill="white"/>
<path d="M271.971 41.8511H272.474V50.026H277.379V50.4662H271.971V41.8511Z" fill="white"/>
<path d="M280.775 41.8511H286.56V42.2913H281.278V45.687H286.245V46.1901H281.278V50.026H286.623V50.4662H280.775V41.8511Z" fill="white"/>
<path d="M292.722 44.3036C292.722 43.9263 292.597 43.6119 292.471 43.3604C292.345 43.1088 292.156 42.8573 291.905 42.6687C291.653 42.48 291.402 42.3542 291.087 42.2913C290.773 42.2285 290.396 42.1656 290.018 42.1656C289.767 42.1656 289.515 42.1656 289.264 42.2285C289.012 42.2913 288.761 42.3542 288.509 42.5429C288.258 42.6686 288.069 42.8573 287.943 43.1088C287.817 43.3604 287.692 43.6119 287.692 43.9892C287.692 44.3036 287.755 44.618 287.943 44.8067C288.132 44.9953 288.321 45.184 288.572 45.3097C288.824 45.4355 289.138 45.5613 289.515 45.6242C289.893 45.687 290.207 45.7499 290.584 45.8757C290.962 45.9386 291.276 46.0644 291.653 46.1272C291.968 46.253 292.282 46.3788 292.597 46.5045C292.848 46.6932 293.1 46.8818 293.225 47.1962C293.414 47.4478 293.477 47.8251 293.477 48.2024C293.477 48.6426 293.351 49.0199 293.163 49.3343C292.974 49.6487 292.722 49.9002 292.471 50.0889C292.156 50.2775 291.842 50.4033 291.528 50.4662C291.15 50.5291 290.836 50.592 290.521 50.592C290.018 50.592 289.578 50.5291 289.138 50.4033C288.698 50.2775 288.321 50.1518 288.006 49.9002C287.692 49.6487 287.44 49.3343 287.251 48.957C287.063 48.5797 287 48.1395 287 47.5736H287.503C287.503 48.0137 287.566 48.4539 287.692 48.7683C287.88 49.0828 288.069 49.3343 288.321 49.5858C288.572 49.7745 288.949 49.9631 289.327 50.026C289.704 50.0889 290.081 50.1518 290.521 50.1518C290.773 50.1518 291.025 50.0889 291.339 50.0889C291.653 50.026 291.905 49.9002 292.156 49.7745C292.408 49.6487 292.597 49.3972 292.785 49.2085C292.974 48.957 293.037 48.6426 293.037 48.2653C293.037 47.888 292.974 47.6364 292.785 47.3849C292.597 47.1334 292.408 47.0076 292.156 46.8189C291.905 46.6932 291.59 46.5674 291.213 46.5045C290.899 46.4416 290.521 46.3159 290.144 46.253C289.767 46.1901 289.452 46.1272 289.075 46.0015C288.698 45.8757 288.446 45.7499 288.132 45.6242C287.88 45.4355 287.629 45.2469 287.503 44.9953C287.314 44.7438 287.251 44.4294 287.251 43.9892C287.251 43.6119 287.314 43.2346 287.503 42.9831C287.692 42.6687 287.88 42.48 288.195 42.2913C288.446 42.1027 288.761 41.9769 289.138 41.914C289.452 41.8512 289.83 41.7883 290.144 41.7883C290.584 41.7883 291.025 41.8512 291.402 41.914C291.779 42.0398 292.094 42.1656 292.408 42.3542C292.722 42.5429 292.911 42.8573 293.1 43.1717C293.288 43.4861 293.351 43.9263 293.414 44.3665H292.722V44.3036Z" fill="white"/>
<path d="M293.477 42.2913V41.7883H300.08V42.2913H296.998V50.4662H296.495V42.2913H293.477Z" fill="white"/>
<path d="M302.218 41.8511H302.784L306.179 50.4662H305.613L304.544 47.6993H300.457L299.388 50.4662H298.822L302.218 41.8511ZM304.419 47.2591L302.532 42.3542L300.583 47.2591H304.419Z" fill="white"/>
<path d="M304.922 42.2913V41.7883H311.462V42.2913H308.443V50.4662H307.94V42.2913H304.922Z" fill="white"/>
<path d="M312.028 41.8511H317.876V42.2913H312.594V45.687H317.561V46.1901H312.594V50.026H317.939V50.4662H312.028V41.8511Z" fill="white"/>
<path d="M321.271 46.1273C321.271 45.4984 321.334 44.9325 321.523 44.3036C321.712 43.6748 321.963 43.2975 322.34 42.9202C322.655 42.5429 323.095 42.2285 323.598 41.977C324.101 41.7254 324.667 41.6625 325.359 41.6625C325.862 41.6625 326.302 41.7254 326.679 41.8512C327.057 41.9769 327.371 42.1656 327.623 42.3543C327.874 42.5429 328.063 42.7316 328.252 42.9831C328.44 43.2346 328.503 43.4233 328.629 43.6119C328.692 43.8006 328.755 43.9892 328.817 44.115C328.88 44.2408 328.88 44.3665 328.88 44.3665H328.377C328.314 43.9892 328.189 43.6748 328.063 43.4233C327.874 43.1717 327.686 42.9202 327.434 42.7315C327.182 42.5429 326.868 42.3543 326.554 42.2914C326.239 42.1656 325.925 42.1656 325.548 42.1656C324.982 42.1656 324.478 42.2914 324.038 42.48C323.598 42.6687 323.221 42.9831 322.906 43.3604C322.592 43.7377 322.403 44.115 322.215 44.618C322.089 45.1211 321.963 45.6242 321.963 46.1273C321.963 46.6932 322.026 47.1963 322.215 47.6365C322.403 48.1395 322.592 48.5168 322.906 48.8941C323.221 49.2714 323.598 49.523 324.038 49.7745C324.478 49.9632 324.982 50.0889 325.548 50.0889C325.988 50.0889 326.365 50.026 326.679 49.8374C327.057 49.6487 327.371 49.4601 327.623 49.1457C327.874 48.8941 328.126 48.5168 328.252 48.2024C328.44 47.8251 328.503 47.4478 328.503 47.0705H329.006C328.943 47.5736 328.817 48.0138 328.629 48.4539C328.44 48.8941 328.189 49.2714 327.874 49.5859C327.56 49.9003 327.182 50.1518 326.805 50.3404C326.365 50.5291 325.925 50.592 325.485 50.592C324.856 50.592 324.29 50.4662 323.724 50.2776C323.221 50.026 322.781 49.7116 322.466 49.3343C322.152 48.957 321.837 48.454 321.649 47.9509C321.334 47.3849 321.271 46.7561 321.271 46.1273Z" fill="white"/>
<path d="M337.747 46.1273C337.747 46.7561 337.684 47.322 337.495 47.9509C337.307 48.5168 337.055 48.957 336.678 49.3343C336.363 49.7116 335.923 50.026 335.42 50.2776C334.917 50.5291 334.351 50.592 333.659 50.592C332.968 50.592 332.465 50.4662 331.899 50.2776C331.396 50.026 330.955 49.7116 330.641 49.3343C330.327 48.957 330.012 48.454 329.886 47.9509C329.698 47.3849 329.635 46.819 329.635 46.1273C329.635 45.4355 329.698 44.9325 329.886 44.3036C330.075 43.7377 330.327 43.2975 330.641 42.9202C330.955 42.5429 331.396 42.2285 331.899 41.977C332.402 41.7254 332.968 41.6625 333.659 41.6625C334.351 41.6625 334.854 41.7883 335.42 41.977C335.923 42.2285 336.363 42.5429 336.678 42.9202C336.992 43.2975 337.307 43.8006 337.495 44.3036C337.684 44.9325 337.747 45.4984 337.747 46.1273ZM330.138 46.1273C330.138 46.6932 330.201 47.1963 330.39 47.6365C330.578 48.1395 330.767 48.5168 331.081 48.8941C331.396 49.2714 331.773 49.523 332.15 49.7745C332.59 49.9632 333.094 50.0889 333.659 50.0889C334.225 50.0889 334.728 49.9632 335.106 49.7745C335.546 49.5859 335.923 49.2714 336.175 48.8941C336.489 48.5168 336.678 48.1395 336.867 47.6365C337.055 47.1334 337.118 46.6303 337.118 46.1273C337.118 45.5613 337.055 45.0582 336.867 44.618C336.678 44.115 336.489 43.7377 336.175 43.3604C335.86 42.9831 335.483 42.7315 335.106 42.48C334.666 42.2914 334.163 42.1656 333.659 42.1656C333.094 42.1656 332.59 42.2914 332.15 42.48C331.71 42.6687 331.333 42.9831 331.081 43.3604C330.767 43.7377 330.578 44.115 330.39 44.618C330.201 45.0582 330.138 45.5613 330.138 46.1273Z" fill="white"/>
<path d="M338.816 41.8511H339.633L342.966 49.9002H343.029L346.362 41.8511H347.054V50.4662H346.551V42.48L343.281 50.4662H342.715L339.445 42.48H339.382V50.4662H338.816V41.8511Z" fill="white"/>
<path d="M348.563 41.8512H352.21C352.462 41.8512 352.713 41.8512 353.028 41.914C353.342 41.9769 353.593 42.1027 353.845 42.2285C354.097 42.4171 354.285 42.6686 354.474 42.9202C354.663 43.2346 354.725 43.6119 354.725 44.115C354.725 44.8696 354.474 45.4355 354.034 45.8757C353.593 46.253 352.902 46.5045 352.021 46.5045H349.066V50.3404H348.563V41.7883V41.8512ZM349.129 46.1272H352.147C352.524 46.1272 352.839 46.0643 353.09 45.9386C353.342 45.8128 353.593 45.6871 353.719 45.4984C353.908 45.3098 353.971 45.1211 354.034 44.8696C354.097 44.618 354.159 44.4294 354.159 44.1779C354.159 43.9892 354.159 43.8634 354.097 43.6119C354.034 43.4233 353.971 43.1717 353.782 42.9831C353.656 42.7944 353.468 42.6058 353.153 42.48C352.902 42.3542 352.587 42.2913 352.147 42.2913H349.066V46.1901H349.129V46.1272Z" fill="white"/>
<path d="M357.492 41.8511H358.058L361.454 50.4662H360.888L359.819 47.6993H355.732L354.663 50.4662H354.097L357.492 41.8511ZM359.63 47.2591L357.744 42.3542L355.794 47.2591H359.63Z" fill="white"/>
<path d="M362.083 41.8511H362.712L368.182 49.7116V41.8511H368.748V50.4662H368.12L362.586 42.48V50.4662H362.083V41.8511Z" fill="white"/>
<path d="M376.106 41.8511H376.672L373.213 46.8818V50.4662H372.647V46.8818L369.251 41.8511H369.817L372.962 46.3787L376.106 41.8511Z" fill="white"/>
<path d="M376.232 0.536743H250.087V1.10269H376.232V0.536743Z" fill="white"/>
</svg>
