<svg width="60" height="60" viewBox="0 0 60 60" fill="none" xmlns="http://www.w3.org/2000/svg">
<path fill-rule="evenodd" clip-rule="evenodd" d="M21.129 8.75C10.3722 8.75 1.25 16.0625 1.25 25.5362C1.25 30.386 3.67506 34.7041 7.45968 37.73V41.9355C7.45968 42.3262 7.64233 42.6944 7.95337 42.9307C8.26442 43.1671 8.66808 43.2445 9.04448 43.1398L14.9524 41.4975C16.8991 42.0335 18.9756 42.3224 21.129 42.3224C21.2622 42.3224 21.395 42.3213 21.5275 42.3191C21.8376 42.3139 22.0607 42.0248 22.0069 41.7193C21.8475 40.8147 21.7641 39.8788 21.7641 38.9145C21.7641 29.1694 30.2761 22.3235 39.7581 21.3895C40.0775 21.358 40.2943 21.0437 40.1881 20.7408C37.7193 13.6983 29.9996 8.75 21.129 8.75ZM17.1372 18.6492C17.1372 20.119 15.9457 21.3105 14.4759 21.3105C13.0061 21.3105 11.8146 20.119 11.8146 18.6492C11.8146 17.1794 13.0061 15.9879 14.4759 15.9879C15.9457 15.9879 17.1372 17.1794 17.1372 18.6492ZM27.7823 21.3105C29.2521 21.3105 30.4436 20.119 30.4436 18.6492C30.4436 17.1794 29.2521 15.9879 27.7823 15.9879C26.3125 15.9879 25.121 17.1794 25.121 18.6492C25.121 20.119 26.3125 21.3105 27.7823 21.3105Z" fill="white"/>
<path fill-rule="evenodd" clip-rule="evenodd" d="M41.9758 24.7177C51.0178 24.7177 58.75 30.8709 58.75 38.9145C58.75 42.9957 56.7256 46.6243 53.5752 49.1758V52.5806C53.5752 52.9713 53.3926 53.3395 53.0815 53.5758C52.7705 53.8122 52.3668 53.8896 51.9904 53.7849L47.1225 52.4317C45.4984 52.8736 43.7684 53.1113 41.9758 53.1113C32.9337 53.1113 25.2016 46.9581 25.2016 38.9145C25.2016 30.8709 32.9337 24.7177 41.9758 24.7177ZM36.3648 36.6129C37.6509 36.6129 38.6935 35.5703 38.6935 34.2843C38.6935 32.9982 37.6509 31.9556 36.3648 31.9556C35.0788 31.9556 34.0362 32.9982 34.0362 34.2843C34.0362 35.5703 35.0788 36.6129 36.3648 36.6129ZM50.004 34.2843C50.004 35.5703 48.9615 36.6129 47.6754 36.6129C46.3893 36.6129 45.3468 35.5703 45.3468 34.2843C45.3468 32.9982 46.3893 31.9556 47.6754 31.9556C48.9615 31.9556 50.004 32.9982 50.004 34.2843Z" fill="white"/>
</svg>
